<?xml version="1.0" encoding="UTF-8" standalone="no"?>
<!DOCTYPE svg PUBLIC "-//W3C//DTD SVG 1.1//EN" "http://www.w3.org/Graphics/SVG/1.1/DTD/svg11.dtd">
<svg width="100%" height="100%" viewBox="0 0 348 366" version="1.1" xmlns="http://www.w3.org/2000/svg" xmlns:xlink="http://www.w3.org/1999/xlink" xml:space="preserve" xmlns:serif="http://www.serif.com/" style="fill-rule:evenodd;clip-rule:evenodd;stroke-linecap:round;stroke-linejoin:round;stroke-miterlimit:2;">
    <g transform="matrix(1,0,0,1,-248.861,-853.067)">
        <g transform="matrix(1,0,0,1,-848.71,-1291.27)">
            <g id="Logo-new" serif:id="Logo new" transform="matrix(0.621447,0,0,0.655311,-3367.23,1613.24)">
                <g transform="matrix(0.452469,0,0,0.452469,3710.5,464.445)">
                    <rect x="8228.91" y="1314.38" width="146.113" height="146.113" style="fill:white;"/>
                    <rect x="8228.91" y="1314.38" width="146.113" height="146.113" style="fill:white;"/>
                </g>
                <g transform="matrix(0.986097,0,0,0.673119,-588.378,158.306)">
                    <path d="M8101.9,1290.25L7882.5,1290.25L7882.5,1256.86L8079.1,1256.86L8079.1,968.838L8101.9,968.838L8101.9,1290.25Z" style="fill:white;"/>
                    <path d="M8101.9,1290.25L7882.5,1290.25L7882.5,1256.86L8079.1,1256.86L8079.1,968.838L8101.9,968.838L8101.9,1290.25Z" style="fill:white;"/>
                </g>
                <g transform="matrix(4.24027,0,0,0.694843,-26499.4,54.5536)">
                    <rect x="7943.81" y="1477.42" width="26.391" height="32.358" style="fill:white;"/>
                    <rect x="7943.81" y="1477.42" width="26.391" height="32.358" style="fill:white;"/>
                </g>
                <g transform="matrix(1.05247,0,0,0.694843,-1042.3,54.5536)">
                    <rect x="7943.81" y="1477.42" width="26.391" height="32.358" style="fill:white;"/>
                    <g transform="matrix(1.52892,-0,-0,2.19617,7816.69,1087.87)">
                    </g>
                </g>
                <g transform="matrix(1.05247,0,0,0.695392,-987.525,53.7419)">
                    <rect x="7943.81" y="1477.42" width="26.391" height="32.358" style="fill:white;"/>
                    <g transform="matrix(1.52892,-0,-0,2.19444,7764.64,1088.17)">
                    </g>
                </g>
                <g transform="matrix(0.673119,0,0,0.673119,1875.27,153.185)">
                    <circle cx="8105.43" cy="1006.15" r="29.709" style="fill:white;"/>
                    <g transform="matrix(2.39059,-0,-0,2.26705,7887.55,976.446)">
                    </g>
                </g>
                <g transform="matrix(0.673119,0,0,0.673119,1748.61,281.128)">
                    <circle cx="8105.43" cy="1006.15" r="29.709" style="fill:white;"/>
                    <g transform="matrix(2.39059,-0,-0,2.26705,8075.72,786.371)">
                    </g>
                </g>
                <g transform="matrix(0.673119,0,0,0.673119,1878.67,158.306)">
                    <path d="M8114.75,1207.67L7984.13,1207.67L7984.13,1175.38L8082.46,1175.38L8082.46,1077.05L8114.75,1077.05L8114.75,1207.67Z" style="fill:white;"/>
                    <path d="M8114.75,1207.67L7984.13,1207.67L7984.13,1175.38L8082.46,1175.38L8082.46,1077.05L8114.75,1077.05L8114.75,1207.67Z" style="fill:white;"/>
                </g>
                <g transform="matrix(6.0381e-17,-0.986097,0.673119,4.12167e-17,6532.39,9141.69)">
                    <path d="M8101.9,1290.25L7882.5,1290.25L7882.5,1256.86L8079.1,1256.86L8079.1,968.838L8101.9,968.838L8101.9,1290.25Z" style="fill:white;"/>
                    <path d="M8101.9,1290.25L7882.5,1290.25L7882.5,1256.86L8079.1,1256.86L8079.1,968.838L8101.9,968.838L8101.9,1290.25Z" style="fill:white;"/>
                </g>
                <g transform="matrix(2.59642e-16,-4.24027,0.694843,4.25468e-17,6428.64,35052.7)">
                    <rect x="7943.81" y="1477.42" width="26.391" height="32.358" style="fill:white;"/>
                    <rect x="7943.81" y="1477.42" width="26.391" height="32.358" style="fill:white;"/>
                </g>
                <g transform="matrix(6.44453e-17,-1.05247,0.694843,4.25468e-17,6428.64,9595.62)">
                    <rect x="7943.81" y="1477.42" width="26.391" height="32.358" style="fill:white;"/>
                    <g transform="matrix(9.36196e-17,2.31585,-1.44991,1.34477e-16,8347.18,1087.87)">
                    </g>
                </g>
                <g transform="matrix(6.44453e-17,-1.05247,0.695392,4.25805e-17,6427.83,9540.84)">
                    <rect x="7943.81" y="1477.42" width="26.391" height="32.358" style="fill:white;"/>
                    <g transform="matrix(9.36196e-17,2.31402,-1.44991,1.3437e-16,8295.14,1088.17)">
                    </g>
                </g>
                <g transform="matrix(4.12167e-17,-0.673119,0.673119,4.12167e-17,6527.27,6678.04)">
                    <circle cx="8105.43" cy="1006.15" r="29.709" style="fill:white;"/>
                    <g transform="matrix(1.46381e-16,2.39059,-2.26705,1.38817e-16,8717.02,976.446)">
                    </g>
                </g>
                <g transform="matrix(4.12167e-17,-0.673119,0.673119,4.12167e-17,6655.21,6804.71)">
                    <circle cx="8105.43" cy="1006.15" r="29.709" style="fill:white;"/>
                    <g transform="matrix(1.46381e-16,2.39059,-2.26705,1.38817e-16,8905.19,786.371)">
                    </g>
                </g>
                <g transform="matrix(4.12167e-17,-0.673119,0.673119,4.12167e-17,6532.39,6674.64)">
                    <path d="M8114.75,1207.67L7984.13,1207.67L7984.13,1175.38L8082.46,1175.38L8082.46,1077.05L8114.75,1077.05L8114.75,1207.67Z" style="fill:white;"/>
                    <path d="M8114.75,1207.67L7984.13,1207.67L7984.13,1175.38L8082.46,1175.38L8082.46,1077.05L8114.75,1077.05L8114.75,1207.67Z" style="fill:white;"/>
                </g>
                <g transform="matrix(-0.986097,1.20762e-16,-8.24333e-17,-0.673119,15517.2,2020.93)">
                    <path d="M8101.9,1290.25L7882.5,1290.25L7882.5,1256.86L8079.1,1256.86L8079.1,968.838L8101.9,968.838L8101.9,1290.25Z" style="fill:white;"/>
                    <path d="M8101.9,1290.25L7882.5,1290.25L7882.5,1256.86L8079.1,1256.86L8079.1,968.838L8101.9,968.838L8101.9,1290.25Z" style="fill:white;"/>
                </g>
                <g transform="matrix(-4.24027,5.19283e-16,-8.50937e-17,-0.694843,41428.2,2130.2)">
                    <rect x="7943.81" y="1477.42" width="26.391" height="32.358" style="fill:white;"/>
                    <rect x="7943.81" y="1477.42" width="26.391" height="32.358" style="fill:white;"/>
                </g>
                <g transform="matrix(-1.05247,1.28891e-16,-8.50937e-17,-0.694843,15971.2,2130.2)">
                    <rect x="7943.81" y="1477.42" width="26.391" height="32.358" style="fill:white;"/>
                    <g transform="matrix(-1.52892,-2.83609e-16,1.77563e-16,-2.19617,8348.56,1899.35)">
                    </g>
                </g>
                <g transform="matrix(-1.05247,1.28891e-16,-8.5161e-17,-0.695392,15916.4,2131.01)">
                    <rect x="7943.81" y="1477.42" width="26.391" height="32.358" style="fill:white;"/>
                    <g transform="matrix(-1.52892,-2.83385e-16,1.77563e-16,-2.19444,8296.51,1899.02)">
                    </g>
                </g>
                <g transform="matrix(-0.673119,8.24333e-17,-8.24333e-17,-0.673119,13053.6,2026.05)">
                    <circle cx="8105.43" cy="1006.15" r="29.709" style="fill:white;"/>
                    <g transform="matrix(-2.39059,-2.92762e-16,2.77633e-16,-2.26705,8719.17,1805.92)">
                    </g>
                </g>
                <g transform="matrix(-0.673119,8.24333e-17,-8.24333e-17,-0.673119,13180.2,1898.1)">
                    <circle cx="8105.43" cy="1006.15" r="29.709" style="fill:white;"/>
                    <g transform="matrix(-2.39059,-2.92762e-16,2.77633e-16,-2.26705,8907.35,1615.84)">
                    </g>
                </g>
                <g transform="matrix(-0.673119,8.24333e-17,-8.24333e-17,-0.673119,13050.2,2020.93)">
                    <path d="M8114.75,1207.67L7984.13,1207.67L7984.13,1175.38L8082.46,1175.38L8082.46,1077.05L8114.75,1077.05L8114.75,1207.67Z" style="fill:white;"/>
                    <path d="M8114.75,1207.67L7984.13,1207.67L7984.13,1175.38L8082.46,1175.38L8082.46,1077.05L8114.75,1077.05L8114.75,1207.67Z" style="fill:white;"/>
                </g>
                <g transform="matrix(6.0381e-17,0.986097,-0.673119,4.12167e-17,8396.32,-6962.32)">
                    <path d="M8101.9,1290.25L7882.5,1290.25L7882.5,1256.86L8079.1,1256.86L8079.1,968.838L8101.9,968.838L8101.9,1290.25Z" style="fill:white;"/>
                    <path d="M8101.9,1290.25L7882.5,1290.25L7882.5,1256.86L8079.1,1256.86L8079.1,968.838L8101.9,968.838L8101.9,1290.25Z" style="fill:white;"/>
                </g>
                <g transform="matrix(2.59642e-16,4.24027,-0.694843,4.25468e-17,8504.11,-32873.3)">
                    <rect x="7943.81" y="1477.42" width="26.391" height="32.358" style="fill:white;"/>
                    <rect x="7943.81" y="1477.42" width="26.391" height="32.358" style="fill:white;"/>
                </g>
                <g transform="matrix(6.44453e-17,1.05247,-0.694843,4.25468e-17,8504.11,-7416.24)">
                    <rect x="7943.81" y="1477.42" width="26.391" height="32.358" style="fill:white;"/>
                    <g transform="matrix(9.36196e-17,-2.31585,1.44991,1.34477e-16,7816.55,1899.1)">
                    </g>
                </g>
                <g transform="matrix(6.44453e-17,1.05247,-0.695392,4.25805e-17,8504.92,-7361.46)">
                    <rect x="7943.81" y="1477.42" width="26.391" height="32.358" style="fill:white;"/>
                    <g transform="matrix(9.36196e-17,-2.31402,1.44991,1.3437e-16,7764.5,1898.76)">
                    </g>
                </g>
                <g transform="matrix(4.12167e-17,0.673119,-0.673119,4.12167e-17,8401.45,-4498.67)">
                    <circle cx="8105.43" cy="1006.15" r="29.709" style="fill:white;"/>
                    <g transform="matrix(1.46381e-16,-2.39059,2.26705,1.38817e-16,7887.33,1807.87)">
                    </g>
                </g>
                <g transform="matrix(4.12167e-17,0.673119,-0.673119,4.12167e-17,8273.5,-4625.33)">
                    <circle cx="8105.43" cy="1006.15" r="29.709" style="fill:white;"/>
                    <g transform="matrix(1.46381e-16,-2.39059,2.26705,1.38817e-16,8075.51,1617.8)">
                    </g>
                </g>
                <g transform="matrix(4.12167e-17,0.673119,-0.673119,4.12167e-17,8396.32,-4495.27)">
                    <path d="M8114.75,1207.67L7984.13,1207.67L7984.13,1175.38L8082.46,1175.38L8082.46,1077.05L8114.75,1077.05L8114.75,1207.67Z" style="fill:white;"/>
                    <path d="M8114.75,1207.67L7984.13,1207.67L7984.13,1175.38L8082.46,1175.38L8082.46,1077.05L8114.75,1077.05L8114.75,1207.67Z" style="fill:white;"/>
                </g>
            </g>
        </g>
    </g>
</svg>
